<svg width="16" height="16" viewBox="0 0 16 16" fill="none" xmlns="http://www.w3.org/2000/svg">
<rect width="16" height="16" fill="white" style="mix-blend-mode:multiply"/>
<path d="M13.5 12.793L12.5 11.793V10.5H11.5V12.207L12.793 13.5L13.5 12.793Z" fill="#161616"/>
<path d="M12 15.5C11.3078 15.5 10.6311 15.2947 10.0555 14.9101C9.47993 14.5256 9.03133 13.9789 8.76642 13.3394C8.50151 12.6998 8.4322 11.9961 8.56725 11.3172C8.7023 10.6382 9.03564 10.0146 9.52512 9.52512C10.0146 9.03564 10.6382 8.7023 11.3172 8.56725C11.9961 8.4322 12.6998 8.50151 13.3394 8.76642C13.9789 9.03133 14.5256 9.47993 14.9101 10.0555C15.2947 10.6311 15.5 11.3078 15.5 12C15.499 12.9279 15.1299 13.8176 14.4737 14.4737C13.8176 15.1299 12.9279 15.499 12 15.5ZM12 9.5C11.5055 9.5 11.0222 9.64662 10.6111 9.92132C10.1999 10.196 9.87952 10.5865 9.6903 11.0433C9.50108 11.5001 9.45157 12.0028 9.54803 12.4877C9.6445 12.9727 9.8826 13.4181 10.2322 13.7678C10.5819 14.1174 11.0273 14.3555 11.5123 14.452C11.9972 14.5484 12.4999 14.4989 12.9567 14.3097C13.4135 14.1205 13.804 13.8 14.0787 13.3889C14.3534 12.9778 14.5 12.4945 14.5 12C14.4993 11.3372 14.2356 10.7017 13.767 10.233C13.2983 9.76435 12.6628 9.50073 12 9.5Z" fill="#161616"/>
<path d="M8 14C6.40925 13.9982 4.88415 13.3655 3.75932 12.2407C2.63448 11.1158 2.00177 9.59075 2 8H1C1.00209 9.85587 1.74026 11.6351 3.05256 12.9474C4.36486 14.2597 6.14413 14.9979 8 15V14Z" fill="#161616"/>
<path d="M6 4H3.5392C4.34835 3.09426 5.41364 2.45578 6.59388 2.16918C7.77411 1.88259 9.01358 1.9614 10.148 2.39519C11.2824 2.82897 12.2583 3.59724 12.9462 4.59818C13.6341 5.59912 14.0016 6.78547 14 8H15C15.0022 6.60839 14.5889 5.2478 13.8131 4.09252C13.0372 2.93724 11.9342 2.03988 10.6452 1.51539C9.35619 0.9909 7.93996 0.863159 6.57792 1.14853C5.21588 1.43391 3.97004 2.1194 3 3.1172V1H2V5H6V4Z" fill="#161616"/>
</svg>
